# xmcd
#
# Track frame offsets:
# 150
# 23057
# 44175
# 68372
# 83522
# 114572
# 139609
# 161403
# 204150
# 225136
# 251099
#
# Disc length: 3567 seconds
#
#
# Revision: 0
# Processed by: cddbd v1.4PL0 Copyright (c) Steve Scherf et al.
# Submitted via: FreeRIP 2.30 
#
DISCID=7e0ded0b
DTITLE=Howlin' Wolf - Live at Ebbets Field, Denver
DYEAR=1973
DGENRE=Blues
TTITLE0=Intro/Instrumental
TTITLE1=I can't Stop Loving You
TTITLE2=Little By Little (Eddie Shaw)
TTITLE3=Baby Work Out (Detroit Junior)
TTITLE4=How Blue Can You Get
TTITLE5=What'd I Say
TTITLE6=Little Red Rooster
TTITLE7=I've Had My Fun
TTITLE8=Killing Floor
TTITLE9=Shake For Me
TTITLE10=Chicken Shack
EXTD=
EXTT0=
EXTT1=
EXTT2=
EXTT3=
EXTT4=
EXTT5=
EXTT6=
EXTT7=
EXTT8=
EXTT9=
EXTT10=
PLAYORDER=
